<svg id="Graphic_Elements" data-name="Graphic Elements" xmlns="http://www.w3.org/2000/svg" viewBox="0 0 1200 1200"><metadata><?xpacket begin="﻿" id="W5M0MpCehiHzreSzNTczkc9d"?>
<x:xmpmeta xmlns:x="adobe:ns:meta/" x:xmptk="Adobe XMP Core 6.0-c002 79.164488, 2020/07/10-22:06:53        ">
   <rdf:RDF xmlns:rdf="http://www.w3.org/1999/02/22-rdf-syntax-ns#">
      <rdf:Description rdf:about=""
            xmlns:xmp="http://ns.adobe.com/xap/1.0/"
            xmlns:xmpMM="http://ns.adobe.com/xap/1.0/mm/"
            xmlns:stEvt="http://ns.adobe.com/xap/1.0/sType/ResourceEvent#">
         <xmp:Label>Approved</xmp:Label>
         <xmp:MetadataDate>2022-05-18T11:35:43+07:00</xmp:MetadataDate>
         <xmpMM:InstanceID>xmp.iid:4dfa2c6e-8cd4-4ba8-800d-be42cce2784e</xmpMM:InstanceID>
         <xmpMM:DocumentID>xmp.did:4dfa2c6e-8cd4-4ba8-800d-be42cce2784e</xmpMM:DocumentID>
         <xmpMM:OriginalDocumentID>xmp.did:4dfa2c6e-8cd4-4ba8-800d-be42cce2784e</xmpMM:OriginalDocumentID>
         <xmpMM:History>
            <rdf:Seq>
               <rdf:li>
                  <rdf:Description>
                     <stEvt:action>saved</stEvt:action>
                     <stEvt:instanceID>xmp.iid:4dfa2c6e-8cd4-4ba8-800d-be42cce2784e</stEvt:instanceID>
                     <stEvt:when>2022-05-18T11:35:43+07:00</stEvt:when>
                     <stEvt:softwareAgent>Adobe Bridge 2021 (Macintosh)</stEvt:softwareAgent>
                     <stEvt:changed>/metadata</stEvt:changed>
                  </rdf:Description>
               </rdf:li>
            </rdf:Seq>
         </xmpMM:History>
      </rdf:Description>
   </rdf:RDF>
</x:xmpmeta>
                                                                                                    
                                                                                                    
                                                                                                    
                                                                                                    
                                                                                                    
                                                                                                    
                                                                                                    
                                                                                                    
                                                                                                    
                                                                                                    
                                                                                                    
                                                                                                    
                                                                                                    
                                                                                                    
                                                                                                    
                                                                                                    
                                                                                                    
                                                                                                    
                                                                                                    
                                                                                                    
                           
<?xpacket end="w"?></metadata>
<defs><style>.cls-1{fill:#9e754e;}.cls-2{fill-opacity:0;stroke:#1a1919;stroke-linecap:round;stroke-linejoin:round;stroke-width:15.96px;}.cls-3{fill:#eb9174;}.cls-4{fill:#f4e3c7;}.cls-5{fill:#1a1919;}.cls-6{fill:#c4675a;}</style></defs><g id="Graphic_Elements-2" data-name="Graphic Elements"><path id="path1481" class="cls-1" d="M447,277.85c0-21.28,16-164.93,10.64-178.23s-16-21.28-23.94-21.28-69.16,50.54-82.46,138.32"/><path id="path1483" class="cls-2" d="M447,277.85c0-21.28,16-164.93,10.64-178.23s-16-21.28-23.94-21.28-69.16,50.54-82.46,138.32"/><path id="path1485" class="cls-3" d="M407.12,237.94c-2.66-13.3,8-117,13.3-125,0,0-47.88,71.82-50.54,103.74"/><path id="path1487" class="cls-4" d="M795.48,833.79c-16,18.62-8,85.12-8,95.76l-8,55.86a490.41,490.41,0,0,1-69.16,23.94c-39.9,10.64-55.86,29.26-55.86,45.22s50.54,16,66.5,18.62,74.48-8,93.1-13.3,69.16-21.28,69.16-31.92-8-42.56-5.32-53.2,34.58-63.84,45.22-74.48l45.22-119.7L832.72,735.37l-37.24,98.42"/><path id="path1489" class="cls-1" d="M877.39,980.32c0-2.18,35.13-69.39,45.77-80l45.22-119.7L882.74,752c-18.57,35.83-15,165.33-16.77,179.72s11.42,48.56,11.42,48.56"/><path id="path1491" class="cls-2" d="M795.48,833.79c-16,18.62-8,85.12-8,95.76l-8,55.86a490.41,490.41,0,0,1-69.16,23.94c-39.9,10.64-55.86,29.26-55.86,45.22s50.54,16,66.5,18.62,74.48-8,93.1-13.3,69.16-21.28,69.16-31.92-8-42.56-5.32-53.2,34.58-63.84,45.22-74.48l45.22-119.7L832.72,735.37Zm-93.1,204.82-10.64,21.28m50.54-18.62s-16,10.64-8,21.28"/><path id="path1493" class="cls-1" d="M1053.51,272.53c8,18.62,69.16,252.7-103.75,282,0,0-2.59,52,2.66,58.52,10.64,13.3,65.86-4.8,79.81-16,26.6-21.28,76.59-66.8,85.12-138.32,13.3-111.72-34.58-231.43-63.84-186.2"/><path id="path1495" class="cls-2" d="M1053.51,272.53c8,18.62,69.16,252.7-103.75,282,0,0-2.59,52,2.66,58.52,10.64,13.3,65.86-4.8,79.81-16,26.6-21.28,76.59-66.8,85.12-138.32C1130.65,347,1082.77,227.3,1053.51,272.53Z"/><path id="path1497" class="cls-1" d="M468.3,285.83C436.38,253.91,306,128.88,236.88,261.89c-29.26-13.3-82.46-23.95-90.45-21.29s-21.28,29.27-18.62,37.25c0,0-79.8,133-2.66,98.42,5.32,21.28,31.93,39.9,53.21,47.88,2.66,13.3-8,90.44-16,101.08-2.66,8,10.64,23.94,34.58,34.58s45.22,13.3,61.18,10.64c2.66-2.66,13.3,16,21.28,16-8,16-63.84,87.78-74.48,95.76,0,0,21.28,16,50.54,18.62l-26.6,23.94s16,8,29.26,8c0,0-5.32,21.28,2.66,21.28s23.94,8,23.94,8l8,29.26c39.9,13.3,95.76,175.56,106.4,223.44-13.3,10.64-50.54,53.2-50.54,53.2s0,23.94,26.6,29.26,82.46-16,95.76-23.94,31.92-23.94,31.92-23.94,5.32-26.6,8-50.54S492.24,892.31,478.94,871c53.2,31.92,204.82,87.78,401.66-26.6,23.94-13.3,146.3-106.4,146.3-106.4,0-10.64-21.28-127.68-77.14-183.54-61.24-61.24-154.28-37.24-252.7-37.24-39.9,5.32-98.42,8-111.72-8-2.66-13.3-26.6-82.46-26.6-82.46,18.62-21.28,93.1-149,87.78-183.54-5.32-18.63-143.64-10.65-178.22,42.56"/><path id="path1499" class="cls-4" d="M199.64,323.07s9,9.44,42.56,21.28c18.72,6.61,116.6,29.53,127,30.59,19.73,2,11.84,47.38,11.84,47.38s-17.77,82.92-13.82,88.84S412,646.24,424.48,645.41c4.11-.27,6.89.64,8.61,2.41,10.74,11-38.54,53.2-41.93,58.29-4,5.94-24.62,36-26.6,47.88s-36.82,57.27-51.63,54.1c-7-8.72-13.79-14.71-20.19-16.86l-8-29.26s-16-8-23.94-8-2.66-21.28-2.66-21.28c-13.3,0-29.26-8-29.26-8l26.6-23.94C226.24,698.13,205,682.17,205,682.17c10.64-8,66.5-79.8,74.48-95.76-8,0-18.62-18.62-21.28-16-16,2.66-37.24,0-61.18-10.64s-37.24-26.6-34.58-34.58c8-10.64,18.62-87.78,16-101.08-21.28-8-47.89-26.6-53.21-47.88-77.14,34.58,2.66-98.42,2.66-98.42-1.22-3.64.9-11.17,4.3-18.52,16,20.85,34,53.87,67.53,63.74"/><path id="path1501" class="cls-4" d="M970.61,780.4c-35.54,26.47-77.1,56.87-90,64C683.76,958.82,532.14,903,478.94,871c13.3,21.28,34.58,103.74,31.92,127.68s-8,50.54-8,50.54-18.62,16-31.92,24-69.16,29.26-95.76,23.94-26.6-29.27-26.6-29.27,37.24-42.56,50.54-53.2c6.4-.2,38.77-16.38,38.77-16.38L396.54,827.42l61.15-66.55s188.85,57.57,410.08,12.6c10.8,3.6,91.73-25.17,91.73-25.17s18.61,17.45,11.11,32.1"/><path id="path1503" class="cls-3" d="M531.44,392.17,509.85,349c9-27,66.55-68.33,79.14-71.93-3.6,32.37-45,89.91-57.55,115.09"/><path id="path1505" class="cls-4" d="M308.07,369.47c7-30.14,46.37-97.34,90.4-78.79,17.23,7.24-4.63,125.16-30.14,136.74s-60.26-57.95-60.26-57.95"/><path id="path1507" class="cls-3" d="M185,425.58l-7,7-1.17,34s-4.68,43.29-5.85,48,0,24.58,10.54,25.75,86.6-32.77,86.6-32.77,45.64-44.45,50.32-50.31,7-18.73,7-18.73-46.82,9.36-53.84,9.36S207.26,435,207.26,435L185,425.58"/><path id="path1509" class="cls-2" d="M468.3,285.83C436.38,253.91,306,128.88,236.88,261.89c-29.26-13.3-82.46-23.95-90.45-21.29s-21.28,29.27-18.62,37.25c0,0-79.8,133-2.66,98.42,5.32,21.28,31.93,39.9,53.21,47.88,2.66,13.3-8,90.44-16,101.08-2.66,8,10.64,23.94,34.58,34.58s45.22,13.3,61.18,10.64c2.66-2.66,13.3,16,21.28,16-8,16-63.84,87.78-74.48,95.76,0,0,21.28,16,50.54,18.62l-26.6,23.94s16,8,29.26,8c0,0-5.32,21.28,2.66,21.28s23.94,8,23.94,8l8,29.26c39.9,13.3,95.76,175.56,106.4,223.44-13.3,10.64-50.54,53.2-50.54,53.2s0,23.94,26.6,29.26,82.46-16,95.76-23.94,31.92-23.94,31.92-23.94,5.32-26.6,8-50.54S492.24,892.31,478.94,871c53.2,31.92,204.82,87.78,401.66-26.6,23.94-13.3,146.3-106.4,146.3-106.4,0-10.64-21.28-127.68-77.14-183.54-61.24-61.24-154.28-37.24-252.7-37.24-39.9,5.32-98.42,8-111.72-8-2.66-13.3-26.6-82.46-26.6-82.46,18.62-21.28,93.1-149,87.78-183.54C641.2,224.64,502.88,232.62,468.3,285.83Z"/><path id="path1511" class="cls-4" d="M949.76,554.49c55.86,55.86,77.14,172.9,77.14,183.54,10.65,45.22,47.89,141,69.17,167.58l16,10.64v29.26s31.92,87.78,37.24,103.74-18.62,55.86-61.18,69.16-111.73-18.62-111.73-18.62-10.64-21.28,2.66-29.26,53.21-21.28,53.21-21.28-26.61-79.8-37.25-90.44S875.28,903,832.72,796.55"/><path id="path1513" class="cls-1" d="M949.76,554.49c55.86,55.86,77.14,172.9,77.14,183.54,10.65,45.22,47.89,141,69.17,167.58l16,10.64v29.26s13.51,37.2,24.43,67.56c-13.29-2.16-63.65-56.14-79.84-59.74-17.2-3.81-88.13-57.54-109.72-73.72-14.62-11-63.76-60.75-75.53-70.15-9-7.2-30.58-28.77-34.18-46.78s-7.19-143.87,18-169,90.24-40.49,94.58-39.14"/><path id="path1515" class="cls-2" d="M949.76,554.49c55.86,55.86,77.14,172.9,77.14,183.54,10.65,45.22,47.89,141,69.17,167.58l16,10.64v29.26s31.92,87.78,37.24,103.74-18.62,55.86-61.18,69.16-111.73-18.62-111.73-18.62-10.64-21.28,2.66-29.26,53.21-21.28,53.21-21.28-26.61-79.8-37.25-90.44S875.28,903,832.72,796.55M486.92,309.77s18.62,26.6,21.28,42.56c8-34.58,66.5-71.82,82.46-77.14M508.2,352.33s10.64,16,10.64,29.26"/><path id="path1517" class="cls-5" d="M207.62,248.59s-53.2-13.31-61.19-8-29.26,37.25-18.62,37.25,42.57,8,50.55,8,42.56-18.62,42.56-18.62l-13.3-18.62"/><path id="path1519" class="cls-2" d="M207.62,248.59s-53.2-13.31-61.19-8-29.26,37.25-18.62,37.25,42.57,8,50.55,8,42.56-18.62,42.56-18.62Zm-50.54,47.88c-5.33,8-39.91,61.18-31.93,79.8m53.21,47.88c10.64,5.32,74.48,34.58,141,13.3l13.3,2.66s-58.52,66.5-82.46,77.14"/><path id="path1521" class="cls-6" d="M303.67,441.58c-23.94,5-47,4.11-66.73.89-37.3,24.24-114.45,109.36-85.19,151.92s66.51-26.6,87.79-63.84,64.13-89,64.13-89"/><path id="path1523" class="cls-2" d="M303.67,441.58c-23.94,5-47,4.11-66.73.89-37.3,24.24-114.45,109.36-85.19,151.92s66.51-26.6,87.79-63.84S303.67,441.58,303.67,441.58Z"/><path id="path1525" class="cls-5" d="M363.91,342.91c-10,12.78-24.21,18.38-31.73,12.5s-5.51-21,4.5-33.81,24.2-18.38,31.72-12.48,5.51,21-4.49,33.79"/><path id="path1527" class="cls-1" d="M345.94,754l-8,16c-16,5.32-191.53,93.1-202.17,101.08-10.64-5.32-66.5-42.56-79.8-34.58s-13.3,122.36,95.76,154.28c21.29,0,82.47-13.3,93.11-16S433.72,873.69,455,871s42.56-2.66,53.2-2.66c21.28,2.66,50.54-21.28,50.54-21.28l-21.28-10.64c29.26,2.66,42.56-8,50.54-10.64l-34.58-21.28"/><path id="path1529" class="cls-4" d="M463.08,746.49l-21.57,18-27,34.18s-127.7,55.77-136.68,61.15S186.11,885,193.29,885c5.7,0-28.78-7.19-36-10.79S135.79,871,135.79,871c-10.64-5.32-66.5-42.56-79.8-34.58s-13.3,122.36,95.76,154.28c21.29,0,82.47-13.3,93.11-16S433.72,873.69,455,871s42.56-2.66,53.2-2.66c21.28,2.66,50.54-21.28,50.54-21.28l.4-8.74C588.4,841,580,828.47,588,825.81l-1.57-19.7"/><path id="path1531" class="cls-2" d="M345.94,754l-8,16c-16,5.32-191.53,93.1-202.17,101.08-10.64-5.32-66.5-42.56-79.8-34.58s-13.3,122.36,95.76,154.28c21.29,0,82.47-13.3,93.11-16S433.72,873.69,455,871s42.56-2.66,53.2-2.66c21.28,2.66,50.54-21.28,50.54-21.28S580,828.47,588,825.81M95.89,895c-8,0-23.94,23.94-23.94,23.94m55.86,8s-26.6,18.62-23.94,29.26m287.29,106.4,5.32,23.94m34.58-23.94,8,21.28m563.92,0-5.32,18.62m55.87-18.62-16,26.6"/></g></svg>