<svg width="262" height="45" viewBox="0 0 262 45" fill="none" xmlns="http://www.w3.org/2000/svg">
<g clip-path="url(#clip0_2_4)">
<path d="M31.6005 5.90149C31.6005 9.54447 29.4396 13.1925 26.7741 13.1925C24.1085 13.1925 21.9478 9.54447 21.9478 5.90149C21.9478 2.25852 24.1086 0 26.7741 0C29.4396 0 31.6005 2.25852 31.6005 5.90149ZM10.7281 2.29276C8.58742 2.9611 7.44605 5.53219 8.40414 8.80554C9.36223 12.0789 12.0569 14.8149 14.1976 14.1465C16.3383 13.4781 17.1143 9.65849 16.1562 6.38514C15.198 3.11187 12.8687 1.62443 10.7281 2.29276ZM44.8982 9.65889C43.347 7.99506 40.8191 7.90973 38.7699 9.94769C36.7206 11.9857 35.9259 15.3753 37.4771 17.0391C39.0283 18.703 42.3379 18.0109 44.3871 15.973C46.4364 13.935 46.4494 11.3227 44.8982 9.65889ZM1.45031 11.4645C-0.093673 12.3746 -0.536404 14.5761 0.768221 16.9369C2.07293 19.2978 4.63101 20.9242 6.17492 20.014C7.7189 19.1038 7.66403 16.0019 6.35932 13.641C5.0547 11.2801 2.9943 10.5543 1.45031 11.4645ZM22.145 45C24.6992 42.9342 27.7403 41.5806 30.6811 40.1141C33.6218 38.6478 36.5625 36.9947 38.7004 34.5016C40.8383 32.0085 42.0533 28.5013 41.0549 25.3742C40.1041 22.3965 37.2636 20.2575 34.2016 19.6093C31.1396 18.9611 27.9146 19.638 25.0653 20.9317C23.5977 21.5981 22.142 22.4424 20.5313 22.5113C18.0466 22.6176 15.8628 20.8694 13.4098 20.4612C10.4414 19.9673 7.32774 21.6371 5.80006 24.226C4.27237 26.8149 4.24857 30.1393 5.41196 32.9105C6.57536 35.6818 8.82662 37.914 11.4404 39.4033C11.7815 39.5976 12.147 39.7852 12.5398 39.7872C12.9325 39.7892 13.3542 39.545 13.4211 39.1585C13.4856 38.7861 13.2186 38.4456 12.9674 38.1626C11.9055 36.9662 10.8119 35.7779 10.0141 34.3918C9.21649 33.0056 8.72921 31.3789 8.99327 29.8021C9.25732 28.2253 10.3901 26.7405 11.9475 26.3695C13.8012 25.9279 15.6112 27.0605 17.4018 27.7116C20.3726 28.7917 23.8059 28.5249 26.5735 26.9987C28.2261 26.0873 29.8938 24.6994 31.748 25.0543C33.825 25.452 34.8822 28.0425 34.3021 30.0731C33.7221 32.1037 32 33.5977 30.2165 34.7324C28.4329 35.8671 26.4799 36.7881 24.9691 38.2657C23.1809 40.0148 22.1384 42.5005 22.145 45Z" fill="#9C867F"/>
<path d="M77.0566 15.6816C76.3418 16.8301 75.1699 20 73.541 25.1914C73.9277 25.2148 74.502 25.2266 75.2637 25.2266C77.6074 25.2266 79.582 24.4238 81.1875 22.8184C82.8047 21.2129 83.6133 19.127 83.6133 16.5605C83.6133 12.8105 81.3574 10.9355 76.8457 10.9355C75.0645 10.9355 73.3418 11.0645 71.6777 11.3223C70.0254 11.5801 68.7188 11.8613 67.7578 12.166C66.7969 12.4707 65.9121 12.752 65.1035 13.0098C64.2949 13.2676 63.7617 13.3965 63.5039 13.3965C62.918 13.3965 62.625 13.1855 62.625 12.7637C62.625 12.3418 63.0234 11.9141 63.8203 11.4805C64.6289 11.0352 65.5488 10.6074 66.5801 10.1973C67.6113 9.77539 68.8887 9.33594 70.4121 8.87891C73.8691 7.82422 77.6133 7.29688 81.6445 7.29688C86.9648 7.29688 90.5859 8.48047 92.5078 10.8477C93.5508 12.125 94.0723 13.666 94.0723 15.4707C94.0723 18.8926 92.6484 21.7168 89.8008 23.9434C87.375 25.8418 84.2227 27.0488 80.3438 27.5645C79.207 27.7168 77.9062 27.793 76.4414 27.793C74.9883 27.793 73.7812 27.6934 72.8203 27.4941C72.3281 29.0762 71.9414 30.2832 71.6602 31.1152C71.3906 31.9473 71.0859 32.6152 70.7461 33.1191C70.4062 33.623 70.043 34.0215 69.6562 34.3145C69.2812 34.6074 68.8008 34.8301 68.2148 34.9824C67.2891 35.2285 66.0527 35.3516 64.5059 35.3516C62.9707 35.3516 61.5117 35.1816 60.1289 34.8418C58.7461 34.502 57.6504 34.0859 56.8418 33.5938C56.0215 33.1016 55.6113 32.6211 55.6113 32.1523C55.6113 31.8828 55.7285 31.666 55.9629 31.502C56.1973 31.3379 56.4668 31.2559 56.7715 31.2559C57.8496 31.2559 58.6465 31.0859 59.1621 30.7461C59.6895 30.3945 60.1934 29.75 60.6738 28.8125C61.166 27.875 61.6523 26.7852 62.1328 25.543C62.625 24.2891 63.082 23.1289 63.5039 22.0625C63.9258 20.9844 64.4062 19.8887 64.9453 18.7754C66.1289 16.3379 67.5293 14.7383 69.1465 13.9766C69.9316 13.6016 70.957 13.3145 72.2227 13.1152C73.4883 12.9043 74.4785 12.7988 75.1934 12.7988C75.9199 12.7988 76.3887 12.8105 76.5996 12.834C76.8223 12.8457 77.0449 12.8809 77.2676 12.9395C77.7129 13.0566 77.9355 13.3027 77.9355 13.6777C77.9355 13.9355 77.8828 14.1758 77.7773 14.3984C77.6836 14.6094 77.4434 15.0371 77.0566 15.6816ZM122.777 29.9902C123.188 29.9902 123.393 30.1836 123.393 30.5703C123.393 30.9453 123.111 31.2969 122.549 31.625C121.998 31.9414 121.312 32.2871 120.492 32.6621C119.672 33.0254 118.541 33.459 117.1 33.9629C113.783 35.123 110.039 35.7031 105.867 35.7031C97.9453 35.7031 93.9844 33.2656 93.9844 28.3906C93.9844 26.0117 94.7344 23.9023 96.2344 22.0625C97.7461 20.2109 99.7676 18.7988 102.299 17.8262C104.83 16.8418 107.59 16.3496 110.578 16.3496C113.566 16.3496 115.752 16.8125 117.135 17.7383C118.529 18.6641 119.227 19.9355 119.227 21.5527C119.227 23.2168 118.559 24.5762 117.223 25.6309C115.898 26.6855 114.135 27.4707 111.932 27.9863C109.717 28.502 107.18 28.8652 104.32 29.0762C104.508 30.8926 105.809 32.0234 108.223 32.4688C108.844 32.5742 109.5 32.627 110.191 32.627C112.934 32.627 116.889 31.8008 122.057 30.1484C122.373 30.043 122.613 29.9902 122.777 29.9902ZM104.338 27.1426C106.377 26.5801 107.988 25.7188 109.172 24.5586C110.355 23.3984 110.947 21.998 110.947 20.3574C110.947 19.9238 110.807 19.5781 110.525 19.3203C110.244 19.0625 109.816 18.9336 109.242 18.9336C108.68 18.9336 108.088 19.1797 107.467 19.6719C106.857 20.1641 106.342 20.8086 105.92 21.6055C105.029 23.2578 104.502 25.1035 104.338 27.1426ZM137.473 17.1055L142.096 16.5078C142.963 16.5078 143.396 16.8477 143.396 17.5273C143.396 18.207 142.986 18.6348 142.166 18.8105C141.346 18.9746 139.494 19.1973 136.611 19.4785C136.213 20.5215 135.615 21.9688 134.818 23.8203C133.189 27.6172 132.375 29.8965 132.375 30.6582C132.375 31.4902 132.891 31.9062 133.922 31.9062C137.25 31.9062 140.238 31.3496 142.887 30.2363C143.273 30.0723 143.578 29.9902 143.801 29.9902C144.234 29.9902 144.451 30.1836 144.451 30.5703C144.451 30.957 144.17 31.3379 143.607 31.7129C141.885 32.8496 139.289 33.7988 135.82 34.5605C132.352 35.3223 129.152 35.7031 126.223 35.7031C124.559 35.7031 123.287 35.4453 122.408 34.9297C121.529 34.4023 121.09 33.6816 121.09 32.7676C121.09 31.8418 121.699 30.1133 122.918 27.582C124.289 24.7461 125.273 22.2559 125.871 20.1113C125.145 20.1465 124.641 20.1641 124.359 20.1641C123.668 20.1641 123.322 19.8828 123.322 19.3203C123.322 18.9102 123.434 18.6348 123.656 18.4941C123.879 18.3535 124.107 18.2539 124.342 18.1953C124.588 18.1367 124.793 18.1016 124.957 18.0898C125.133 18.0664 125.373 18.043 125.678 18.0195C125.982 17.9961 126.205 17.9785 126.346 17.9668C126.498 17.0762 126.574 16.2383 126.574 15.4531L126.557 14.7852C126.557 14.2578 127.225 13.9004 128.561 13.7129C129.006 13.6543 130.406 13.3613 132.762 12.834C135.117 12.3066 136.559 12.043 137.086 12.043C137.93 12.043 138.352 12.3359 138.352 12.9219C138.352 13.9297 138.059 15.3242 137.473 17.1055ZM156.193 29.3398C157.307 30.6758 159.053 31.3438 161.432 31.3438C163.658 31.3438 165.967 30.9688 168.357 30.2188C169.143 29.9727 169.723 29.8496 170.098 29.8496C170.777 29.8496 171.117 30.043 171.117 30.4297C171.117 30.9922 170.672 31.5957 169.781 32.2402C168.891 32.873 167.766 33.4414 166.406 33.9453C165.047 34.4492 163.506 34.8652 161.783 35.1934C160.072 35.5332 158.443 35.7031 156.896 35.7031C154.154 35.7031 151.74 35.2754 149.654 34.4199C147.568 33.5645 145.951 32.3457 144.803 30.7637C143.654 29.1699 143.08 27.4355 143.08 25.5605C143.08 23.6738 143.396 21.9336 144.029 20.3398C144.662 18.7344 145.518 17.2871 146.596 15.998C147.686 14.709 148.951 13.5137 150.393 12.4121C151.846 11.3105 153.375 10.3906 154.98 9.65234C158.414 8.08203 161.707 7.29688 164.859 7.29688C168.012 7.29688 170.461 7.94727 172.207 9.24805C173.953 10.5371 174.826 12.1191 174.826 13.9941C174.826 16.0332 174.223 17.8203 173.016 19.3555C172.441 20.1055 171.674 20.7031 170.713 21.1484C169.764 21.5938 168.691 21.8164 167.496 21.8164C166.699 21.8164 166.02 21.7051 165.457 21.4824C164.391 21.0605 163.857 20.457 163.857 19.6719C163.857 19.4023 164.162 18.6406 164.771 17.3867C165.393 16.1328 166.014 14.8437 166.635 13.5195C167.256 12.1836 167.566 11.2695 167.566 10.7773C167.566 10.2734 167.355 9.92773 166.934 9.74023C166.512 9.55273 165.908 9.45898 165.123 9.45898C164.35 9.45898 163.471 9.75781 162.486 10.3555C161.502 10.9414 160.553 11.75 159.639 12.7812C158.725 13.8008 157.887 14.9375 157.125 16.1914C156.363 17.4453 155.754 18.8047 155.297 20.2695C154.84 21.7227 154.611 23.0293 154.611 24.1895C154.611 25.3496 154.74 26.3398 154.998 27.1602C155.268 27.9805 155.666 28.707 156.193 29.3398ZM187.904 31.2383C190.107 31.2383 191.947 29.5508 193.424 26.1758C194.104 24.6289 194.443 23.375 194.443 22.4141C194.443 21.4531 194.279 20.791 193.951 20.4277C193.635 20.0645 193.002 19.8828 192.053 19.8828C191.115 19.8828 190.096 20.3223 188.994 21.2012C187.904 22.0684 187.025 23.1641 186.357 24.4883C185.689 25.8125 185.355 27.0078 185.355 28.0742C185.355 29.1289 185.59 29.9199 186.059 30.4473C186.527 30.9746 187.143 31.2383 187.904 31.2383ZM197.045 16.3496L205.096 16.7188C205.4 16.7188 205.629 16.8125 205.781 17C205.934 17.1758 206.01 17.375 206.01 17.5977C206.01 18.4531 205.652 19.8184 204.938 21.6934C204.234 23.5566 203.525 25.4082 202.811 27.248C202.107 29.0762 201.756 30.2891 201.756 30.8867C201.756 31.4727 201.844 31.8477 202.02 32.0117C202.207 32.1758 202.559 32.2578 203.074 32.2578C203.59 32.2578 204.527 32.0117 205.887 31.5195C207.258 31.0156 208.184 30.6348 208.664 30.377C209.156 30.1191 209.531 29.9902 209.789 29.9902C210.246 29.9902 210.475 30.1953 210.475 30.6055C210.475 31.4727 208.717 32.6094 205.201 34.0156C204.018 34.4961 202.588 34.8945 200.912 35.2109C199.248 35.5391 197.555 35.7031 195.832 35.7031C192.961 35.7031 191.232 34.7891 190.646 32.9609C188.818 34.7891 186.357 35.7031 183.264 35.7031C181.143 35.7031 179.35 35.1934 177.885 34.1738C176.291 33.0605 175.494 31.3086 175.494 28.918C175.494 26.3984 176.238 24.0781 177.727 21.957C179.355 19.6016 181.535 17.9785 184.266 17.0879C185.777 16.5957 187.4 16.3496 189.135 16.3496C191.795 16.3496 193.863 17.0059 195.34 18.3184C195.352 18.248 195.357 18.1367 195.357 17.9844L195.34 17.2285C195.34 16.6426 195.908 16.3496 197.045 16.3496ZM213.832 16.9121L222.164 16.7188C222.469 16.7188 222.697 16.8125 222.85 17C223.002 17.1758 223.078 17.3398 223.078 17.4922C223.078 17.6445 223.037 17.8965 222.955 18.248C222.873 18.5996 222.768 19.0273 222.639 19.5312C222.51 20.0234 222.428 20.3398 222.393 20.4805C223.307 19.3906 224.449 18.4297 225.82 17.5977C227.191 16.7656 228.398 16.3496 229.441 16.3496C231.656 16.3496 232.764 16.8301 232.764 17.791C232.764 18.7402 232.465 19.8828 231.867 21.2188C231.27 22.543 230.707 23.416 230.18 23.8379C229.922 24.0254 229.605 24.1191 229.23 24.1191C228.867 24.1191 228.527 24.002 228.211 23.7676C226.793 22.7129 225.246 22.1855 223.57 22.1855C222.926 22.1855 222.363 22.2324 221.883 22.3262C221.426 23.8965 220.699 26.2051 219.703 29.252C218.707 32.2871 218.156 33.9805 218.051 34.332C217.875 34.8828 217.547 35.1582 217.066 35.1582C215.367 35.1582 213.545 35.2461 211.6 35.4219C209.654 35.6094 208.535 35.7031 208.242 35.7031C207.961 35.7031 207.738 35.6211 207.574 35.457C207.422 35.3047 207.346 35.123 207.346 34.9121C207.346 34.6895 207.592 33.9043 208.084 32.5566C208.588 31.1973 209.139 29.7383 209.736 28.1797C210.346 26.6211 210.896 24.9102 211.389 23.0469C211.893 21.1836 212.145 19.6543 212.145 18.459L212.127 17.791C212.127 17.2051 212.695 16.9121 213.832 16.9121ZM260.906 29.9902C261.316 29.9902 261.521 30.1836 261.521 30.5703C261.521 30.9453 261.24 31.2969 260.678 31.625C260.127 31.9414 259.441 32.2871 258.621 32.6621C257.801 33.0254 256.67 33.459 255.229 33.9629C251.912 35.123 248.168 35.7031 243.996 35.7031C236.074 35.7031 232.113 33.2656 232.113 28.3906C232.113 26.0117 232.863 23.9023 234.363 22.0625C235.875 20.2109 237.896 18.7988 240.428 17.8262C242.959 16.8418 245.719 16.3496 248.707 16.3496C251.695 16.3496 253.881 16.8125 255.264 17.7383C256.658 18.6641 257.355 19.9355 257.355 21.5527C257.355 23.2168 256.688 24.5762 255.352 25.6309C254.027 26.6855 252.264 27.4707 250.061 27.9863C247.846 28.502 245.309 28.8652 242.449 29.0762C242.637 30.8926 243.938 32.0234 246.352 32.4688C246.973 32.5742 247.629 32.627 248.32 32.627C251.062 32.627 255.018 31.8008 260.186 30.1484C260.502 30.043 260.742 29.9902 260.906 29.9902ZM242.467 27.1426C244.506 26.5801 246.117 25.7188 247.301 24.5586C248.484 23.3984 249.076 21.998 249.076 20.3574C249.076 19.9238 248.936 19.5781 248.654 19.3203C248.373 19.0625 247.945 18.9336 247.371 18.9336C246.809 18.9336 246.217 19.1797 245.596 19.6719C244.986 20.1641 244.471 20.8086 244.049 21.6055C243.158 23.2578 242.631 25.1035 242.467 27.1426Z" fill="#9C867F"/>
</g>
<defs>
<clipPath id="clip0_2_4">
<rect width="262" height="45" fill="white"/>
</clipPath>
</defs>
</svg>
